<?xml version="1.0" encoding="UTF-8" standalone="no"?>
<svg
   xmlns:dc="http://purl.org/dc/elements/1.1/"
   xmlns:cc="http://creativecommons.org/ns#"
   xmlns:rdf="http://www.w3.org/1999/02/22-rdf-syntax-ns#"
   xmlns:svg="http://www.w3.org/2000/svg"
   xmlns="http://www.w3.org/2000/svg"
   id="svg8"
   version="1.1"
   width="16"
   height="16">
  <metadata
     id="metadata14">
    <rdf:RDF>
      <cc:Work
         rdf:about="">
        <dc:format>image/svg+xml</dc:format>
        <dc:type
           rdf:resource="http://purl.org/dc/dcmitype/StillImage" />
        <dc:title />
      </cc:Work>
    </rdf:RDF>
  </metadata>
  <defs
     id="defs12" />
  <path
     id="rect860"
     d="m 2.5,2 h 7.625 c -2,6 -2,6 -4.125,12 H 2.5 C 1.669,14 1,13.331 1,12.5 v -9 C 1,2.669 1.669,2 2.5,2 Z"
     style="opacity:0.25;vector-effect:none;fill:#333333;fill-opacity:1;stroke:none;stroke-width:1;stroke-linecap:round;stroke-linejoin:round;stroke-miterlimit:4;stroke-dasharray:none;stroke-dashoffset:0;stroke-opacity:1" />
  <path
     id="path850"
     d="M 2.5 1 C 1.1236486 1 0 2.1236486 0 3.5 L 0 12.5 C 0 13.876351 1.1236486 15 2.5 15 L 13.5 15 C 14.876351 15 16 13.876351 16 12.5 L 16 3.5 C 16 2.1236486 14.876351 1 13.5 1 L 2.5 1 z M 2.5 2 L 3 2 L 3 14 L 2.5 14 C 1.6603514 14 1 13.339649 1 12.5 L 1 3.5 C 1 2.6603514 1.6603514 2 2.5 2 z M 4 2 L 12 2 L 12 14 L 4 14 L 4 2 z M 13 2 L 13.5 2 C 14.339649 2 15 2.6603514 15 3.5 L 15 12.5 C 15 13.339649 14.339649 14 13.5 14 L 13 14 L 13 2 z M 8 5 C 6.3466486 5 5 6.3466486 5 8 C 5 9.6533514 6.3466486 11 8 11 C 9.6533514 11 11 9.6533514 11 8 C 11 6.3466486 9.6533514 5 8 5 z M 8 6 C 9.1166486 6 10 6.8833514 10 8 C 10 9.1166486 9.1166486 10 8 10 C 6.8833514 10 6 9.1166486 6 8 C 6 6.8833514 6.8833514 6 8 6 z M 8 7 A 1 1 0 0 0 7 8 A 1 1 0 0 0 8 9 A 1 1 0 0 0 9 8 A 1 1 0 0 0 8 7 z "
     style="color:#000000;font-style:normal;font-variant:normal;font-weight:normal;font-stretch:normal;font-size:medium;line-height:normal;font-family:sans-serif;font-variant-ligatures:normal;font-variant-position:normal;font-variant-caps:normal;font-variant-numeric:normal;font-variant-alternates:normal;font-feature-settings:normal;text-indent:0;text-align:start;text-decoration:none;text-decoration-line:none;text-decoration-style:solid;text-decoration-color:#000000;letter-spacing:normal;word-spacing:normal;text-transform:none;writing-mode:lr-tb;direction:ltr;text-orientation:mixed;dominant-baseline:auto;baseline-shift:baseline;text-anchor:start;white-space:normal;shape-padding:0;clip-rule:nonzero;display:inline;overflow:visible;visibility:visible;opacity:1;isolation:auto;mix-blend-mode:normal;color-interpolation:sRGB;color-interpolation-filters:linearRGB;solid-color:#000000;solid-opacity:1;vector-effect:none;fill:#333333;fill-opacity:1;fill-rule:nonzero;stroke:none;stroke-width:1px;stroke-linecap:butt;stroke-linejoin:miter;stroke-miterlimit:4;stroke-dasharray:none;stroke-dashoffset:0;stroke-opacity:1;color-rendering:auto;image-rendering:auto;shape-rendering:auto;text-rendering:auto;enable-background:accumulate" />
</svg>
